<svg width="256" height="16" viewBox="0 0 256 16" fill="none" xmlns="http://www.w3.org/2000/svg">
<path fill-rule="evenodd" clip-rule="evenodd" d="M187.65 4.07506C176.236 4.32335 163.867 4.77586 150.998 5.372C101.413 7.6691 44.4493 12.0972 6.25349 15.1805L6.24795 15.1119C5.94062 15.1409 5.63456 15.1699 5.3298 15.1988L5.23535 14.2033C43.2844 10.5934 101.445 6.01745 152.267 4.02199C164.619 3.53705 176.539 3.20441 187.633 3.07518C198.22 2.84495 207.988 2.79016 216.576 2.95931C225.503 3.13516 233.164 3.55318 239.142 4.26973C242.132 4.62799 244.709 5.06186 246.818 5.5801C248.92 6.09646 250.591 6.70433 251.744 7.42635L251.706 7.48612C253.315 8.05718 254.616 8.69982 255.557 9.42733L254.946 10.2186C253.929 9.43315 252.366 8.71148 250.271 8.06423C248.182 7.41921 245.598 6.85814 242.567 6.3766C236.504 5.41356 228.69 4.77462 219.547 4.40707C210.151 4.02937 199.364 3.93867 187.65 4.07506Z" fill="#FEB624"/>
<path fill-rule="evenodd" clip-rule="evenodd" d="M186.585 2.7907C174.962 3.04604 162.363 3.53526 149.254 4.18937C98.8576 6.70404 40.9666 11.6535 2.14856 15.1038L2.14143 15.0235C1.82811 15.0562 1.5161 15.0889 1.2054 15.1215L1.10105 14.127C39.7692 10.0698 98.8784 4.95297 150.536 2.78885C163.121 2.26161 175.267 1.9095 186.569 1.79082C197.299 1.55515 207.203 1.51856 215.911 1.73553C224.987 1.96165 232.778 2.46339 238.859 3.30479C241.9 3.72549 244.523 4.23234 246.671 4.83544C248.812 5.43655 250.515 6.14219 251.689 6.97714L251.642 7.04325C253.282 7.70625 254.606 8.4505 255.564 9.28991L254.905 10.0419C253.868 9.13306 252.278 8.29874 250.149 7.54897C248.027 6.80139 245.401 6.14886 242.32 5.58654C236.158 4.4619 228.216 3.70554 218.922 3.25813C209.394 2.79947 198.459 2.66608 186.585 2.7907Z" fill="#FEB624"/>
</svg>
