<svg width="297" height="16" viewBox="0 0 297 16" fill="none" xmlns="http://www.w3.org/2000/svg">
<path fill-rule="evenodd" clip-rule="evenodd" d="M217.569 3.97363C204.26 4.25825 189.833 4.75108 174.824 5.38967C117.098 7.84569 50.7773 12.4565 6.3085 15.6622L6.30349 15.5929C5.94454 15.623 5.58709 15.653 5.23115 15.683L5.1472 14.6865C49.4451 10.9548 117.154 6.19272 176.313 4.03465C190.718 3.50916 204.618 3.13799 217.552 2.97376C229.844 2.71091 241.188 2.62551 251.16 2.76687C261.549 2.91413 270.458 3.30756 277.408 4.00431C280.883 4.35267 283.875 4.77758 286.321 5.28753C288.759 5.79584 290.687 6.39493 292.013 7.10563L291.978 7.17004C293.847 7.73454 295.352 8.37015 296.438 9.08973L295.885 9.9233C294.693 9.13287 292.861 8.41164 290.416 7.76896C287.979 7.1284 284.966 6.57446 281.435 6.10204C274.373 5.15723 265.273 4.54301 254.629 4.20461C243.71 3.85748 231.178 3.80087 217.569 3.97363Z" fill="#FEB624"/>
<path fill-rule="evenodd" clip-rule="evenodd" d="M216.243 2.69415C202.716 2.9868 188.053 3.51631 172.797 4.21217C114.126 6.88841 46.7237 12.0237 1.52949 15.5984L1.52314 15.5181C1.15697 15.552 0.792327 15.5857 0.429234 15.6195L0.336761 14.6238C45.3565 10.4427 114.171 5.13676 174.302 2.80738C188.946 2.24007 203.078 1.84923 216.227 1.69427C228.722 1.424 240.252 1.3556 250.39 1.54474C260.951 1.74178 270.011 2.21847 277.079 3.03954C280.613 3.45007 283.658 3.94762 286.148 4.54193C288.63 5.1344 290.595 5.83052 291.946 6.65367L291.902 6.72627C293.805 7.3821 295.338 8.11883 296.443 8.95036L295.842 9.74953C294.627 8.83596 292.766 8.00159 290.282 7.25587C287.805 6.51238 284.743 5.86682 281.153 5.31361C273.975 4.20721 264.726 3.47587 253.906 3.05805C242.809 2.62955 230.073 2.53122 216.243 2.69415Z" fill="#FEB624"/>
</svg>
