<svg width="629" height="21" viewBox="0 0 629 21" fill="none" xmlns="http://www.w3.org/2000/svg">
<path fill-rule="evenodd" clip-rule="evenodd" d="M458.895 2.38622C430.142 2.97582 398.973 3.82758 366.544 4.85878C241.879 8.82306 98.6232 15.4389 2.57284 20.0061L2.569 19.9253C1.78424 19.9676 1.00278 20.0097 0.224672 20.0517L0.170725 19.0532C95.8545 13.8838 242.086 7.06753 369.807 3.4193C400.928 2.53037 430.951 1.8295 458.877 1.38638C485.396 0.842595 509.861 0.521736 531.364 0.488715C553.775 0.4543 572.973 0.732517 587.927 1.39728C602.862 2.06116 613.616 3.11196 619.102 4.63957L619.076 4.7324C623.105 5.34452 626.289 6.03851 628.546 6.8212L628.219 7.76602C622.884 5.91636 612.07 4.54092 596.782 3.58717C581.519 2.63494 561.859 2.10568 538.877 1.92481C515.314 1.73937 488.266 1.92018 458.895 2.38622Z" fill="#FEB624"/>
</svg>
