<svg width="169" height="14" viewBox="0 0 169 14" fill="none" xmlns="http://www.w3.org/2000/svg">
<path fill-rule="evenodd" clip-rule="evenodd" d="M123.313 3.55945C115.775 3.73148 107.604 4.10205 99.1005 4.61356C66.3947 6.58093 28.8315 10.6298 3.6406 13.4593L3.63288 13.3905C3.4334 13.4171 3.23474 13.4436 3.03691 13.4701L2.90429 12.4789C27.9996 9.12131 66.3665 4.93081 99.9094 3.27225C108.076 2.86846 115.959 2.61456 123.298 2.55953C130.272 2.40051 136.711 2.41096 142.375 2.63685C148.275 2.87215 153.349 3.34173 157.32 4.10153C161.26 4.85552 164.215 5.91254 165.773 7.39637L165.732 7.43946C166.813 8.03209 167.682 8.6931 168.312 9.43077L167.551 10.0799C166.216 8.51552 163.476 7.2215 159.463 6.21712C155.477 5.21944 150.333 4.53028 144.303 4.10266C138.119 3.66413 131.022 3.50179 123.313 3.55945Z" fill="#FEB624"/>
<path fill-rule="evenodd" clip-rule="evenodd" d="M122.551 2.26899C114.89 2.4472 106.585 2.85238 97.943 3.41903C64.7043 5.59846 26.5332 10.1623 0.934013 13.3546L0.924109 13.2752C0.721313 13.3053 0.519346 13.3353 0.318219 13.3653L0.1708 12.3762C25.6723 8.57529 64.663 3.85003 98.7573 2.02826C107.059 1.58468 115.074 1.313 122.536 1.26906C129.625 1.10432 136.171 1.13337 141.93 1.40853C147.93 1.69518 153.092 2.24959 157.134 3.13593C161.148 4.01624 164.157 5.24402 165.739 6.95226L165.689 6.99928C166.792 7.68522 167.678 8.44845 168.319 9.29761L167.52 9.89968C166.151 8.08358 163.36 6.58849 159.287 5.42363C155.235 4.2651 150.008 3.45815 143.879 2.94988C137.595 2.42874 130.383 2.22304 122.551 2.26899Z" fill="#FEB624"/>
</svg>
