<svg width="544" height="22" viewBox="0 0 544 22" fill="none" xmlns="http://www.w3.org/2000/svg">
<path fill-rule="evenodd" clip-rule="evenodd" d="M398.851 5.90626C374.442 6.40764 347.983 7.13531 320.457 8.01806C214.547 11.4145 92.8439 17.1063 11.2439 21.0367L11.2406 20.9672C10.5777 21.0034 9.91755 21.0395 9.26022 21.0755L9.20552 20.077C90.4944 15.6237 214.727 9.75887 323.235 6.63788C349.647 5.8782 375.129 5.28105 398.833 4.90642C421.387 4.44316 442.194 4.17301 460.48 4.15214C479.52 4.13042 495.831 4.37896 508.538 4.96165C521.225 5.54341 530.371 6.45974 535.044 7.7911L535.021 7.86947C538.449 8.40313 541.16 9.00804 543.083 9.69036L542.749 10.6328C538.229 9.02943 529.053 7.83156 516.063 6.99783C503.097 6.16566 486.396 5.69902 466.872 5.53363C446.835 5.36389 423.831 5.51147 398.851 5.90626Z" fill="#FEB624"/>
<path fill-rule="evenodd" clip-rule="evenodd" d="M396.517 4.64729C371.685 5.16031 344.765 5.92914 316.757 6.87414C209.109 10.5063 85.4129 16.7405 2.47667 21.0517L2.47246 20.9709C1.79541 21.011 1.1212 21.051 0.449878 21.091L0.390499 20.0927C83.0094 15.1783 209.277 8.75153 319.568 5.44343C346.447 4.63721 372.379 4.01619 396.499 3.64745C419.394 3.17446 440.517 2.91885 459.084 2.94307C478.439 2.96831 495.021 3.29763 507.941 4.00234C520.838 4.70583 530.143 5.78548 534.902 7.33309L534.873 7.42339C538.357 8.04707 541.113 8.75101 543.071 9.54223L542.696 10.4694C538.103 8.6132 528.779 7.20967 515.572 6.21512C502.392 5.22258 485.415 4.64107 465.569 4.39905C445.225 4.15096 421.874 4.25966 396.517 4.64729Z" fill="#FEB624"/>
</svg>
