<svg width="321" height="16" viewBox="0 0 321 16" fill="none" xmlns="http://www.w3.org/2000/svg">
<path fill-rule="evenodd" clip-rule="evenodd" d="M234.089 1.73689C219.432 2.05156 203.545 2.60498 187.016 3.32572C123.45 6.09751 50.4229 11.3426 1.4572 14.9909L1.45121 14.9106C1.05386 14.9451 0.65817 14.9795 0.264161 15.0139L0.177272 14.0177C48.954 9.76339 123.509 4.34547 188.652 1.91831C204.518 1.32716 219.828 0.913335 234.072 0.737025C247.607 0.446473 260.097 0.359338 271.078 0.531979C282.517 0.711836 292.328 1.17374 299.98 1.98297C303.807 2.38757 307.101 2.87978 309.794 3.46922C312.479 4.05694 314.598 4.74803 316.053 5.56494L316.011 5.64062C318.07 6.29253 319.726 7.02516 320.918 7.85217L320.348 8.67386C319.027 7.75788 317.005 6.9241 314.311 6.18128C311.624 5.44062 308.305 4.79943 304.415 4.25173C296.636 3.15638 286.614 2.43992 274.892 2.03963C262.87 1.62912 249.072 1.55149 234.089 1.73689Z" fill="#FEB624"/>
</svg>
