<svg width="129" height="14" viewBox="0 0 129 14" fill="none" xmlns="http://www.w3.org/2000/svg">
<path fill-rule="evenodd" clip-rule="evenodd" d="M94.2002 3.91822C88.4771 4.05514 82.2728 4.38706 75.8151 4.85824C50.956 6.67206 22.4104 10.5441 3.2633 13.2557L3.25369 13.1878C3.10515 13.213 2.95719 13.238 2.80984 13.2631L2.64236 12.2772C21.7187 9.03636 50.8893 5.02425 76.4047 3.52195C82.61 3.15659 88.6038 2.93937 94.1865 2.91827C99.4995 2.79138 104.407 2.8318 108.726 3.0847C113.221 3.34793 117.098 3.84228 120.139 4.62514C123.157 5.4022 125.448 6.48641 126.658 8.00099L126.617 8.03366C127.447 8.63559 128.115 9.30491 128.6 10.049L127.762 10.5948C126.749 9.03949 124.688 7.74914 121.655 6.73417C118.638 5.72442 114.739 5.01333 110.158 4.55837C105.458 4.0915 100.062 3.89628 94.2002 3.91822Z" fill="#FEB624"/>
<path fill-rule="evenodd" clip-rule="evenodd" d="M93.6317 2.62432C87.811 2.76656 81.5 3.13259 74.9307 3.65871C49.6682 5.68195 20.6634 10.0659 1.20744 13.1383L1.19503 13.0597C1.04457 13.0882 0.894702 13.1166 0.745447 13.1449L0.558812 12.1625C19.9426 8.48009 49.5862 3.93587 75.5215 2.27281C81.8364 1.86787 87.9367 1.63338 93.6189 1.62433C99.0131 1.4928 103.996 1.55254 108.384 1.85498C112.956 2.17015 116.902 2.7501 119.999 3.66095C123.079 4.56671 125.406 5.82406 126.632 7.55857L126.582 7.59359C127.43 8.28941 128.112 9.06093 128.604 9.91558L127.738 10.4149C126.693 8.60113 124.585 7.11059 121.51 5.93738C118.444 4.76788 114.482 3.93924 109.827 3.40342C105.056 2.85423 99.5798 2.61514 93.6317 2.62432Z" fill="#FEB624"/>
</svg>
